<svg width="159" height="63" fill="none" xmlns="http://www.w3.org/2000/svg"><g filter="url(#filter0_d)"><circle cx="23.5" cy="23.5" r="23.5" fill="#D13233"/><circle cx="23.5" cy="23.5" r="23.5" fill="url(#paint0_radial)"/></g><path d="M12.224 28V16.8h2.272v9.24h4.528V28h-6.8zm8.177 0v-8.288h2.2V28h-2.2zm.176-9.592a1.216 1.216 0 01-.376-.904c0-.357.125-.659.376-.904.25-.245.56-.368.928-.368s.677.123.928.368c.25.245.376.547.376.904s-.126.659-.376.904-.56.368-.928.368-.677-.123-.928-.368zM29.51 16.4v1.752a6.728 6.728 0 00-.744-.04c-.448 0-.77.093-.968.28-.198.187-.296.477-.296.872v.448h2.008v1.912h-2.008V28h-2.2v-6.376h-1.24v-1.912h1.24v-.472c0-1.947 1.085-2.92 3.256-2.92.293 0 .61.027.952.08zm2.936 8.112c.096.576.363 1.043.8 1.4.443.352.976.528 1.6.528.87 0 1.654-.344 2.352-1.032l1.32 1.28c-.922 1.003-2.144 1.504-3.664 1.504a5.184 5.184 0 01-1.88-.336 4.292 4.292 0 01-1.472-.92c-.4-.39-.715-.848-.944-1.376a4.355 4.355 0 01-.336-1.704c0-.597.115-1.163.344-1.696.23-.533.541-.992.936-1.376.4-.39.88-.696 1.44-.92a4.662 4.662 0 011.784-.344c.827 0 1.574.19 2.24.568.667.373 1.184.88 1.552 1.52a4.12 4.12 0 01.552 2.104c0 .277-.032.544-.096.8h-6.528zm2.264-3.24c-.517 0-.978.152-1.384.456a2.3 2.3 0 00-.824 1.216h4.304a2.175 2.175 0 00-.744-1.208c-.373-.31-.824-.464-1.352-.464zm24.487 4.976c.475 0 .904-.12 1.288-.36.39-.24.68-.56.872-.96v-2.144c-.192-.4-.482-.72-.872-.96a2.38 2.38 0 00-1.288-.36c-.677 0-1.245.23-1.704.688-.459.459-.688 1.027-.688 1.704s.23 1.245.688 1.704c.459.459 1.027.688 1.704.688zm-.464-6.728c1.05 0 1.925.341 2.624 1.024V16.32h2.176V28h-2.176v-.832c-.698.683-1.573 1.024-2.624 1.024a3.975 3.975 0 01-2.12-.584 4.166 4.166 0 01-1.488-1.584 4.542 4.542 0 01-.528-2.168c0-.784.176-1.507.528-2.168a4.106 4.106 0 011.488-1.576 3.934 3.934 0 012.12-.592zm8.604 4.992c.096.576.362 1.043.8 1.4.442.352.976.528 1.6.528.87 0 1.653-.344 2.352-1.032l1.32 1.28c-.923 1.003-2.144 1.504-3.664 1.504a5.184 5.184 0 01-1.88-.336 4.291 4.291 0 01-1.472-.92c-.4-.39-.715-.848-.944-1.376a4.355 4.355 0 01-.336-1.704c0-.597.114-1.163.344-1.696.23-.533.541-.992.936-1.376.4-.39.88-.696 1.44-.92a4.662 4.662 0 011.784-.344c.826 0 1.573.19 2.24.568.666.373 1.184.88 1.552 1.52a4.12 4.12 0 01.552 2.104c0 .277-.032.544-.096.8h-6.528zm2.264-3.24c-.518 0-.979.152-1.384.456a2.3 2.3 0 00-.824 1.216h4.304a2.176 2.176 0 00-.744-1.208c-.374-.31-.824-.464-1.352-.464zm10.878-1.56h2.288L79.808 28H77.44l-2.96-8.288h2.288l1.856 5.64 1.856-5.64zm5.03 4.8c.096.576.362 1.043.8 1.4.442.352.976.528 1.6.528.869 0 1.653-.344 2.352-1.032l1.32 1.28c-.923 1.003-2.144 1.504-3.664 1.504a5.184 5.184 0 01-1.88-.336 4.292 4.292 0 01-1.472-.92c-.4-.39-.715-.848-.944-1.376a4.355 4.355 0 01-.336-1.704c0-.597.114-1.163.344-1.696.229-.533.541-.992.936-1.376.4-.39.88-.696 1.44-.92a4.662 4.662 0 011.784-.344c.826 0 1.573.19 2.24.568.666.373 1.184.88 1.552 1.52a4.12 4.12 0 01.552 2.104c0 .277-.032.544-.096.8H85.51zm2.264-3.24c-.518 0-.979.152-1.384.456a2.3 2.3 0 00-.824 1.216h4.304a2.175 2.175 0 00-.744-1.208c-.374-.31-.824-.464-1.352-.464zm10.282 4.976c.678 0 1.246-.23 1.704-.688.459-.459.688-1.027.688-1.704s-.229-1.245-.688-1.704c-.458-.459-1.026-.688-1.704-.688-.474 0-.906.12-1.296.36-.384.24-.672.56-.864.96v2.144c.192.4.48.72.864.96.39.24.822.36 1.296.36zm.464-6.728c.779 0 1.486.197 2.12.592a4.05 4.05 0 011.48 1.576 4.48 4.48 0 01.536 2.168 4.48 4.48 0 01-.536 2.168 4.102 4.102 0 01-1.48 1.584 3.972 3.972 0 01-2.12.584c-1.05 0-1.925-.341-2.624-1.024v4.544H93.72v-12h2.176v.832c.699-.683 1.574-1.024 2.624-1.024zm6.492 7.416c-.88-.837-1.32-1.864-1.32-3.08s.44-2.243 1.32-3.08c.88-.837 1.973-1.256 3.28-1.256.864 0 1.648.192 2.352.576a4.245 4.245 0 011.648 1.568c.4.661.6 1.392.6 2.192 0 .8-.2 1.53-.6 2.192a4.245 4.245 0 01-1.648 1.568c-.704.384-1.488.576-2.352.576-1.307 0-2.4-.419-3.28-1.256zm.888-3.08c0 .677.229 1.245.688 1.704.459.459 1.027.688 1.704.688s1.245-.23 1.704-.688c.464-.459.696-1.027.696-1.704 0-.672-.232-1.237-.696-1.696-.459-.464-1.027-.696-1.704-.696s-1.245.232-1.704.696c-.459.459-.688 1.024-.688 1.696zm8.57-4.144h2.2v.912c.267-.33.595-.595.984-.792a2.73 2.73 0 011.248-.296 3.24 3.24 0 011.568.376c.47.25.846.6 1.128 1.048a3.302 3.302 0 011.184-1.04 3.205 3.205 0 011.552-.4c.955 0 1.731.315 2.328.944.603.624.904 1.427.904 2.408V28h-2.2v-4.904c0-.464-.138-.85-.416-1.16-.272-.315-.634-.472-1.088-.472-.336 0-.658.112-.968.336a2.923 2.923 0 00-.792.856c.011.235.016.416.016.544V28h-2.2v-4.904c0-.475-.138-.864-.416-1.168-.277-.31-.64-.464-1.088-.464-.336 0-.658.11-.968.328a2.947 2.947 0 00-.776.84V28h-2.2v-8.288zm16.743 4.8c.096.576.362 1.043.8 1.4.442.352.976.528 1.6.528.869 0 1.653-.344 2.352-1.032l1.32 1.28c-.923 1.003-2.144 1.504-3.664 1.504a5.183 5.183 0 01-1.88-.336 4.285 4.285 0 01-1.472-.92 4.27 4.27 0 01-.944-1.376 4.355 4.355 0 01-.336-1.704c0-.597.114-1.163.344-1.696.229-.533.541-.992.936-1.376.4-.39.88-.696 1.44-.92a4.66 4.66 0 011.784-.344c.826 0 1.573.19 2.24.568.666.373 1.184.88 1.552 1.52a4.12 4.12 0 01.552 2.104c0 .277-.032.544-.096.8h-6.528zm2.264-3.24c-.518 0-.979.152-1.384.456a2.3 2.3 0 00-.824 1.216h4.304a2.18 2.18 0 00-.744-1.208c-.374-.31-.824-.464-1.352-.464zm8.146 1.336V28h-2.2v-8.288h2.2v.912c.283-.336.63-.603 1.04-.8a2.91 2.91 0 011.288-.304c.976 0 1.771.312 2.384.936.619.624.928 1.437.928 2.44V28h-2.2v-4.888c0-.47-.152-.861-.456-1.176-.298-.315-.696-.472-1.192-.472-.336 0-.669.112-1 .336a2.73 2.73 0 00-.792.808zm10.225-.984v3.504c0 .4.096.693.288.88.197.181.522.272.976.272.282 0 .544-.013.784-.04v1.84a5.44 5.44 0 01-1.144.112c-2.07 0-3.104-.976-3.104-2.928v-3.64h-1.288v-1.912h1.288v-2.208l2.2-.192v2.4h1.952v1.912h-1.952z" fill="#fff"/><defs><radialGradient id="paint0_radial" cx="0" cy="0" r="1" gradientUnits="userSpaceOnUse" gradientTransform="rotate(110.376 9.862 15.518) scale(33.5347)"><stop stop-color="#FEC8C1"/><stop offset="1" stop-color="#E56A59" stop-opacity="0"/></radialGradient><filter id="filter0_d" x="-14" y="0" width="63" height="63" filterUnits="userSpaceOnUse" color-interpolation-filters="sRGB"><feFlood flood-opacity="0" result="BackgroundImageFix"/><feColorMatrix in="SourceAlpha" values="0 0 0 0 0 0 0 0 0 0 0 0 0 0 0 0 0 0 127 0"/><feOffset dx="-6" dy="8"/><feGaussianBlur stdDeviation="4"/><feColorMatrix values="0 0 0 0 0 0 0 0 0 0 0 0 0 0 0 0 0 0 0.1 0"/><feBlend in2="BackgroundImageFix" result="effect1_dropShadow"/><feBlend in="SourceGraphic" in2="effect1_dropShadow" result="shape"/></filter></defs></svg>