<?xml version="1.0" encoding="UTF-8"?><!DOCTYPE svg PUBLIC "-//W3C//DTD SVG 1.1//EN" "http://www.w3.org/Graphics/SVG/1.1/DTD/svg11.dtd"><svg xmlns="http://www.w3.org/2000/svg" xmlns:xlink="http://www.w3.org/1999/xlink"><defs>
<filter id="filter0_d" x="-14" y="0" width="63" height="63" filterUnits="userSpaceOnUse" color-interpolation-filters="sRGB">
<feFlood flood-opacity="0" result="BackgroundImageFix"/>
<feColorMatrix in="SourceAlpha" type="matrix" values="0 0 0 0 0 0 0 0 0 0 0 0 0 0 0 0 0 0 127 0"/>
<feOffset dx="-6" dy="8"/>
<feGaussianBlur stdDeviation="4"/>
<feColorMatrix type="matrix" values="0 0 0 0 0 0 0 0 0 0 0 0 0 0 0 0 0 0 0.1 0"/>
<feBlend mode="normal" in2="BackgroundImageFix" result="effect1_dropShadow"/>
<feBlend mode="normal" in="SourceGraphic" in2="effect1_dropShadow" result="shape"/>
</filter>
<radialGradient id="paint0_radial" cx="0" cy="0" r="1" gradientUnits="userSpaceOnUse" gradientTransform="translate(27.8436 11.6763) rotate(110.376) scale(33.5347)">
<stop stop-color="#FEC8C1"/>
<stop offset="1" stop-color="#E56A59" stop-opacity="0"/>
</radialGradient>
</defs><symbol id="facebook" viewBox="0 0 10 20">
<path d="M10 0V4H8C7.31 4 7 4.81 7 5.5V8H10V12H7V20H3V12H0V8H3V4C3 1.79 4.79 0 7 0H10Z"/>
</symbol><symbol id="filter" viewBox="0 0 18 16">
<path d="M8.24618 0C7.2769 0 6.45111 0.613636 6.13778 1.45455H0V2.90909H6.13778C6.45111 3.75 7.2769 4.36364 8.24618 4.36364C9.21546 4.36364 10.0412 3.75 10.3546 2.90909H17.9917V1.45455H10.3546C10.0412 0.613636 9.21546 0 8.24618 0ZM8.24618 1.45455C8.66786 1.45455 8.99583 1.77273 8.99583 2.18182C8.99583 2.59091 8.66786 2.90909 8.24618 2.90909C7.8245 2.90909 7.49653 2.59091 7.49653 2.18182C7.49653 1.77273 7.8245 1.45455 8.24618 1.45455ZM13.4938 5.81818C12.5245 5.81818 11.6987 6.43182 11.3854 7.27273H0V8.72727H11.3854C11.6987 9.56818 12.5245 10.1818 13.4938 10.1818C14.463 10.1818 15.2888 9.56818 15.6021 8.72727H17.9917V7.27273H15.6021C15.2888 6.43182 14.463 5.81818 13.4938 5.81818ZM13.4938 7.27273C13.9154 7.27273 14.2434 7.59091 14.2434 8C14.2434 8.40909 13.9154 8.72727 13.4938 8.72727C13.0721 8.72727 12.7441 8.40909 12.7441 8C12.7441 7.59091 13.0721 7.27273 13.4938 7.27273ZM5.24757 11.6364C4.27829 11.6364 3.4525 12.25 3.13917 13.0909H0V14.5455H3.13917C3.4525 15.3864 4.27829 16 5.24757 16C6.21685 16 7.04264 15.3864 7.35597 14.5455H17.9917V13.0909H7.35597C7.04264 12.25 6.21685 11.6364 5.24757 11.6364ZM5.24757 13.0909C5.66925 13.0909 5.99722 13.4091 5.99722 13.8182C5.99722 14.2273 5.66925 14.5455 5.24757 14.5455C4.82589 14.5455 4.49792 14.2273 4.49792 13.8182C4.49792 13.4091 4.82589 13.0909 5.24757 13.0909Z" fill="white"/>
</symbol><symbol id="insta" viewBox="0 0 20 20">
<path d="M5.8 0H14.2C17.4 0 20 2.6 20 5.8V14.2C20 17.4 17.4 20 14.2 20H5.8C2.6 20 0 17.4 0 14.2V5.8C0 2.6 2.6 0 5.8 0ZM5.6 2C3.61 2 2 3.61 2 5.6V14.4C2 16.39 3.61 18 5.6 18H14.4C16.39 18 18 16.39 18 14.4V5.6C18 3.61 16.39 2 14.4 2H5.6ZM15.25 3.5C15.94 3.5 16.5 4.06 16.5 4.75C16.5 5.44 15.94 6 15.25 6C14.56 6 14 5.44 14 4.75C14 4.06 14.56 3.5 15.25 3.5ZM10 5C12.76 5 15 7.24 15 10C15 12.76 12.76 15 10 15C7.24 15 5 12.76 5 10C5 7.24 7.24 5 10 5ZM10 7C8.34 7 7 8.34 7 10C7 11.66 8.34 13 10 13C11.66 13 13 11.66 13 10C13 8.34 11.66 7 10 7Z"/>
</symbol><symbol id="logo" viewBox="0 0 159 63">
<g filter="url(#filter0_d)">
<circle cx="23.5" cy="23.5" r="23.5" fill="#D13233"/>
<circle cx="23.5" cy="23.5" r="23.5" fill="url(#paint0_radial)"/>
</g>
<path d="M12.224 28V16.8H14.496V26.04H19.024V28H12.224ZM20.4009 28V19.712H22.6009V28H20.4009ZM20.5769 18.408C20.3262 18.1627 20.2009 17.8613 20.2009 17.504C20.2009 17.1467 20.3262 16.8453 20.5769 16.6C20.8275 16.3547 21.1369 16.232 21.5049 16.232C21.8729 16.232 22.1822 16.3547 22.4329 16.6C22.6835 16.8453 22.8089 17.1467 22.8089 17.504C22.8089 17.8613 22.6835 18.1627 22.4329 18.408C22.1822 18.6533 21.8729 18.776 21.5049 18.776C21.1369 18.776 20.8275 18.6533 20.5769 18.408ZM29.5108 16.4V18.152C29.2708 18.1253 29.0228 18.112 28.7668 18.112C28.3188 18.112 27.9961 18.2053 27.7988 18.392C27.6014 18.5787 27.5028 18.8693 27.5028 19.264V19.712H29.5108V21.624H27.5028V28H25.3028V21.624H24.0628V19.712H25.3028V19.24C25.3028 17.2933 26.3881 16.32 28.5588 16.32C28.8521 16.32 29.1694 16.3467 29.5108 16.4ZM32.4471 24.512C32.5431 25.088 32.8098 25.5547 33.2471 25.912C33.6898 26.264 34.2231 26.44 34.8471 26.44C35.7165 26.44 36.5005 26.096 37.1991 25.408L38.5191 26.688C37.5965 27.6907 36.3751 28.192 34.8551 28.192C34.1831 28.192 33.5565 28.08 32.9751 27.856C32.3938 27.632 31.9031 27.3253 31.5031 26.936C31.1031 26.5467 30.7885 26.088 30.5591 25.56C30.3351 25.0267 30.2231 24.4587 30.2231 23.856C30.2231 23.2587 30.3378 22.6933 30.5671 22.16C30.7965 21.6267 31.1085 21.168 31.5031 20.784C31.9031 20.3947 32.3831 20.088 32.9431 19.864C33.5031 19.6347 34.0978 19.52 34.7271 19.52C35.5538 19.52 36.3005 19.7093 36.9671 20.088C37.6338 20.4613 38.1511 20.968 38.5191 21.608C38.8871 22.2427 39.0711 22.944 39.0711 23.712C39.0711 23.9893 39.0391 24.256 38.9751 24.512H32.4471ZM34.7111 21.272C34.1938 21.272 33.7325 21.424 33.3271 21.728C32.9271 22.032 32.6525 22.4373 32.5031 22.944H36.8071C36.6845 22.4427 36.4365 22.04 36.0631 21.736C35.6898 21.4267 35.2391 21.272 34.7111 21.272ZM59.1981 26.248C59.6728 26.248 60.1021 26.128 60.4861 25.888C60.8755 25.648 61.1661 25.328 61.3581 24.928V22.784C61.1661 22.384 60.8755 22.064 60.4861 21.824C60.1021 21.584 59.6728 21.464 59.1981 21.464C58.5208 21.464 57.9528 21.6933 57.4941 22.152C57.0355 22.6107 56.8061 23.1787 56.8061 23.856C56.8061 24.5333 57.0355 25.1013 57.4941 25.56C57.9528 26.0187 58.5208 26.248 59.1981 26.248ZM58.7341 19.52C59.7848 19.52 60.6595 19.8613 61.3581 20.544V16.32H63.5341V28H61.3581V27.168C60.6595 27.8507 59.7848 28.192 58.7341 28.192C57.9555 28.192 57.2488 27.9973 56.6141 27.608C55.9795 27.2133 55.4835 26.6853 55.1261 26.024C54.7741 25.3627 54.5981 24.64 54.5981 23.856C54.5981 23.072 54.7741 22.3493 55.1261 21.688C55.4835 21.0267 55.9795 20.5013 56.6141 20.112C57.2488 19.7173 57.9555 19.52 58.7341 19.52ZM67.3378 24.512C67.4338 25.088 67.7004 25.5547 68.1378 25.912C68.5804 26.264 69.1138 26.44 69.7378 26.44C70.6071 26.44 71.3911 26.096 72.0898 25.408L73.4097 26.688C72.4871 27.6907 71.2658 28.192 69.7458 28.192C69.0738 28.192 68.4471 28.08 67.8658 27.856C67.2844 27.632 66.7938 27.3253 66.3938 26.936C65.9938 26.5467 65.6791 26.088 65.4498 25.56C65.2258 25.0267 65.1138 24.4587 65.1138 23.856C65.1138 23.2587 65.2284 22.6933 65.4578 22.16C65.6871 21.6267 65.9991 21.168 66.3938 20.784C66.7938 20.3947 67.2738 20.088 67.8338 19.864C68.3938 19.6347 68.9884 19.52 69.6178 19.52C70.4444 19.52 71.1911 19.7093 71.8578 20.088C72.5244 20.4613 73.0417 20.968 73.4097 21.608C73.7778 22.2427 73.9618 22.944 73.9618 23.712C73.9618 23.9893 73.9298 24.256 73.8658 24.512H67.3378ZM69.6018 21.272C69.0844 21.272 68.6231 21.424 68.2178 21.728C67.8178 22.032 67.5431 22.4373 67.3938 22.944H71.6978C71.5751 22.4427 71.3271 22.04 70.9538 21.736C70.5804 21.4267 70.1298 21.272 69.6018 21.272ZM80.4801 19.712H82.7681L79.8081 28H77.4401L74.4801 19.712H76.7681L78.6241 25.352L80.4801 19.712ZM85.5096 24.512C85.6056 25.088 85.8723 25.5547 86.3096 25.912C86.7523 26.264 87.2856 26.44 87.9096 26.44C88.779 26.44 89.563 26.096 90.2616 25.408L91.5816 26.688C90.659 27.6907 89.4376 28.192 87.9176 28.192C87.2456 28.192 86.619 28.08 86.0376 27.856C85.4563 27.632 84.9656 27.3253 84.5656 26.936C84.1656 26.5467 83.851 26.088 83.6216 25.56C83.3976 25.0267 83.2856 24.4587 83.2856 23.856C83.2856 23.2587 83.4003 22.6933 83.6296 22.16C83.859 21.6267 84.171 21.168 84.5656 20.784C84.9656 20.3947 85.4456 20.088 86.0056 19.864C86.5656 19.6347 87.1603 19.52 87.7896 19.52C88.6163 19.52 89.363 19.7093 90.0296 20.088C90.6963 20.4613 91.2136 20.968 91.5816 21.608C91.9496 22.2427 92.1336 22.944 92.1336 23.712C92.1336 23.9893 92.1016 24.256 92.0376 24.512H85.5096ZM87.7736 21.272C87.2563 21.272 86.795 21.424 86.3896 21.728C85.9896 22.032 85.715 22.4373 85.5656 22.944H89.8696C89.747 22.4427 89.499 22.04 89.1256 21.736C88.7523 21.4267 88.3016 21.272 87.7736 21.272ZM98.0563 26.248C98.7336 26.248 99.3016 26.0187 99.7603 25.56C100.219 25.1013 100.448 24.5333 100.448 23.856C100.448 23.1787 100.219 22.6107 99.7603 22.152C99.3016 21.6933 98.7336 21.464 98.0563 21.464C97.5816 21.464 97.1496 21.584 96.7603 21.824C96.3763 22.064 96.0883 22.384 95.8963 22.784V24.928C96.0883 25.328 96.3763 25.648 96.7603 25.888C97.1496 26.128 97.5816 26.248 98.0563 26.248ZM98.5203 19.52C99.2989 19.52 100.006 19.7173 100.64 20.112C101.275 20.5013 101.768 21.0267 102.12 21.688C102.478 22.3493 102.656 23.072 102.656 23.856C102.656 24.64 102.478 25.3627 102.12 26.024C101.768 26.6853 101.275 27.2133 100.64 27.608C100.006 27.9973 99.2989 28.192 98.5203 28.192C97.4696 28.192 96.5949 27.8507 95.8963 27.168V31.712H93.7203V19.712H95.8963V20.544C96.5949 19.8613 97.4696 19.52 98.5203 19.52ZM105.012 26.936C104.132 26.0987 103.692 25.072 103.692 23.856C103.692 22.64 104.132 21.6133 105.012 20.776C105.892 19.9387 106.985 19.52 108.292 19.52C109.156 19.52 109.94 19.712 110.644 20.096C111.348 20.48 111.897 21.0027 112.292 21.664C112.692 22.3253 112.892 23.056 112.892 23.856C112.892 24.656 112.692 25.3867 112.292 26.048C111.897 26.7093 111.348 27.232 110.644 27.616C109.94 28 109.156 28.192 108.292 28.192C106.985 28.192 105.892 27.7733 105.012 26.936ZM105.9 23.856C105.9 24.5333 106.129 25.1013 106.588 25.56C107.047 26.0187 107.615 26.248 108.292 26.248C108.969 26.248 109.537 26.0187 109.996 25.56C110.46 25.1013 110.692 24.5333 110.692 23.856C110.692 23.184 110.46 22.6187 109.996 22.16C109.537 21.696 108.969 21.464 108.292 21.464C107.615 21.464 107.047 21.696 106.588 22.16C106.129 22.6187 105.9 23.184 105.9 23.856ZM114.47 19.712H116.67V20.624C116.937 20.2933 117.265 20.0293 117.654 19.832C118.044 19.6347 118.46 19.536 118.902 19.536C119.484 19.536 120.006 19.6613 120.47 19.912C120.94 20.1627 121.316 20.512 121.598 20.96C121.897 20.528 122.292 20.1813 122.782 19.92C123.273 19.6533 123.79 19.52 124.334 19.52C125.289 19.52 126.065 19.8347 126.662 20.464C127.265 21.088 127.566 21.8907 127.566 22.872V28H125.366V23.096C125.366 22.632 125.228 22.2453 124.95 21.936C124.678 21.6213 124.316 21.464 123.862 21.464C123.526 21.464 123.204 21.576 122.894 21.8C122.585 22.0187 122.321 22.304 122.102 22.656C122.113 22.8907 122.118 23.072 122.118 23.2V28H119.918V23.096C119.918 22.6213 119.78 22.232 119.502 21.928C119.225 21.6187 118.862 21.464 118.414 21.464C118.078 21.464 117.756 21.5733 117.446 21.792C117.142 22.0107 116.884 22.2907 116.67 22.632V28H114.47V19.712ZM131.213 24.512C131.309 25.088 131.575 25.5547 132.013 25.912C132.455 26.264 132.989 26.44 133.613 26.44C134.482 26.44 135.266 26.096 135.965 25.408L137.285 26.688C136.362 27.6907 135.141 28.192 133.621 28.192C132.949 28.192 132.322 28.08 131.741 27.856C131.159 27.632 130.669 27.3253 130.269 26.936C129.869 26.5467 129.554 26.088 129.325 25.56C129.101 25.0267 128.989 24.4587 128.989 23.856C128.989 23.2587 129.103 22.6933 129.333 22.16C129.562 21.6267 129.874 21.168 130.269 20.784C130.669 20.3947 131.149 20.088 131.709 19.864C132.269 19.6347 132.863 19.52 133.493 19.52C134.319 19.52 135.066 19.7093 135.733 20.088C136.399 20.4613 136.917 20.968 137.285 21.608C137.653 22.2427 137.837 22.944 137.837 23.712C137.837 23.9893 137.805 24.256 137.741 24.512H131.213ZM133.477 21.272C132.959 21.272 132.498 21.424 132.093 21.728C131.693 22.032 131.418 22.4373 131.269 22.944H135.573C135.45 22.4427 135.202 22.04 134.829 21.736C134.455 21.4267 134.005 21.272 133.477 21.272ZM141.623 22.608V28H139.423V19.712H141.623V20.624C141.906 20.288 142.253 20.0213 142.663 19.824C143.079 19.6213 143.509 19.52 143.951 19.52C144.927 19.52 145.722 19.832 146.335 20.456C146.954 21.08 147.263 21.8933 147.263 22.896V28H145.063V23.112C145.063 22.6427 144.911 22.2507 144.607 21.936C144.309 21.6213 143.911 21.464 143.415 21.464C143.079 21.464 142.746 21.576 142.415 21.8C142.085 22.024 141.821 22.2933 141.623 22.608ZM151.848 21.624V25.128C151.848 25.528 151.944 25.8213 152.136 26.008C152.333 26.1893 152.658 26.28 153.112 26.28C153.394 26.28 153.656 26.2667 153.896 26.24V28.08C153.549 28.1547 153.168 28.192 152.752 28.192C150.682 28.192 149.648 27.216 149.648 25.264V21.624H148.36V19.712H149.648V17.504L151.848 17.312V19.712H153.8V21.624H151.848Z" fill="white"/>

</symbol><symbol id="phone" viewBox="0 0 36 36">
<circle cx="18" cy="18" r="17.5" stroke="white"/>
<path d="M23.6917 27C23.5068 26.9995 23.3225 26.9798 23.1418 26.9414C19.7031 26.2522 16.5352 24.6364 14.0026 22.2798C11.524 19.9181 9.80498 16.9111 9.0535 13.6226C8.96489 13.2128 8.98664 12.7877 9.11665 12.3884C9.24666 11.9891 9.48057 11.6289 9.79586 11.3424L11.9954 9.29135C12.1078 9.18842 12.2413 9.10959 12.3872 9.06002C12.5331 9.01045 12.6882 8.99125 12.8423 9.00367C13.0021 9.01982 13.1562 9.06968 13.294 9.14976C13.4318 9.22983 13.5497 9.33817 13.6396 9.46716L16.3891 13.4042C16.4922 13.5569 16.542 13.7377 16.5311 13.92C16.5202 14.1022 16.4492 14.2762 16.3286 14.4164L14.9484 16.0147C15.4981 17.1933 16.2766 18.2586 17.2414 19.1526C18.2001 20.0789 19.3332 20.8186 20.5793 21.3315L22.2895 20.0156C22.4331 19.9056 22.6079 19.8406 22.7906 19.8292C22.9733 19.8178 23.1553 19.8605 23.3123 19.9517L27.464 22.5515C27.6065 22.6339 27.7279 22.7465 27.8191 22.8808C27.9102 23.0151 27.9689 23.1677 27.9906 23.3271C28.0123 23.4865 27.9964 23.6485 27.9443 23.8011C27.8921 23.9538 27.805 24.093 27.6895 24.2084L25.5449 26.2648C25.3013 26.4996 25.0121 26.6855 24.6941 26.8117C24.376 26.9378 24.0354 27.0018 23.6917 27ZM12.7543 10.0585L10.5547 12.1096C10.3773 12.2697 10.246 12.4718 10.1737 12.696C10.1014 12.9202 10.0906 13.1587 10.1423 13.3882C10.8411 16.474 12.4473 19.2976 14.7669 21.518C17.1503 23.735 20.1315 25.2549 23.3673 25.9025C23.6122 25.9521 23.866 25.9421 24.106 25.8732C24.3459 25.8044 24.5644 25.679 24.742 25.5083L26.8866 23.4518L22.8779 20.9426L21.0412 22.3597C20.9709 22.4136 20.8881 22.4501 20.7999 22.4658C20.7117 22.4816 20.6209 22.4763 20.5353 22.4503C19.0103 21.9059 17.6283 21.0418 16.4881 19.9197C15.3088 18.8527 14.3933 17.5415 13.8101 16.0839C13.7854 15.9957 13.7846 15.9028 13.8077 15.8141C13.8308 15.7255 13.8771 15.6441 13.9421 15.5778L15.4268 13.857L12.7543 10.0585Z" fill="white"/>
</symbol><symbol id="search" viewBox="0 0 16 16">
<path fill-rule="evenodd" clip-rule="evenodd" d="M16 14.9285L14.9285 16L10.5293 11.6008C9.42169 12.4769 8.02193 13 6.5 13C2.91015 13 0 10.0899 0 6.5C0 2.91015 2.91015 0 6.5 0C10.0899 0 13 2.91015 13 6.5C13 8.02193 12.4769 9.42169 11.6008 10.5293L16 14.9285ZM6.51526 11.5153C9.27669 11.5153 11.5153 9.27669 11.5153 6.51526C11.5153 3.75384 9.27669 1.51526 6.51526 1.51526C3.75384 1.51526 1.51526 3.75384 1.51526 6.51526C1.51526 9.27669 3.75384 11.5153 6.51526 11.5153Z" fill="white"/>
</symbol><symbol id="twitter" viewBox="0 0 21 17">
<path d="M20.92 2C20.15 2.35 19.32 2.58 18.46 2.69C19.34 2.16 20.02 1.32 20.34 0.31C19.51 0.81 18.59 1.16 17.62 1.36C16.83 0.5 15.72 0 14.46 0C12.11 0 10.19 1.92 10.19 4.29C10.19 4.63 10.23 4.96 10.3 5.27C6.74 5.09 3.57 3.38 1.46 0.79C1.09 1.42 0.879997 2.16 0.879997 2.94C0.879997 4.43 1.63 5.75 2.79 6.5C2.08 6.5 1.42 6.3 0.839996 6C0.839996 6 0.839996 6 0.839996 6.03C0.839996 8.11 2.32 9.85 4.28 10.24C3.92 10.34 3.54 10.39 3.15 10.39C2.88 10.39 2.61 10.36 2.35 10.31C2.89 12 4.46 13.26 6.35 13.29C4.89 14.45 3.04 15.13 1.02 15.13C0.679997 15.13 0.34 15.11 0 15.07C1.9 16.29 4.16 17 6.58 17C14.46 17 18.79 10.46 18.79 4.79C18.79 4.6 18.79 4.42 18.78 4.23C19.62 3.63 20.34 2.87 20.92 2Z">
</path></symbol><symbol id="vk" viewBox="0 0 20 12">
<path d="M17.2005 7.6C18.7505 9.04 19.0705 9.73 19.1205 9.82C19.7605 10.88 18.4205 10.96 18.4205 10.96L15.8405 11C15.8405 11 15.2805 11.11 14.5605 10.61C13.5905 9.95 12.6605 8.22 11.9705 8.45C11.2605 8.68 11.2805 10.23 11.2805 10.23C11.2805 10.23 11.2805 10.45 11.1205 10.62C10.9405 10.81 10.5905 10.74 10.5905 10.74H9.44049C9.44049 10.74 6.89049 11 4.66049 8.67C2.21049 6.13 0.0504879 1.13 0.0504879 1.13C0.0504879 1.13 -0.06951 0.83 0.06049 0.66C0.21049 0.5 0.63049 0.5 0.63049 0.5H3.39048C3.39048 0.5 3.66049 0.5 3.83049 0.66C3.98049 0.77 4.07049 1 4.07049 1C4.07049 1 4.51049 2.11 5.11049 3.13C6.26049 5.12 6.79049 5.55 7.16049 5.34C7.76049 5.03 7.59048 2.53 7.59048 2.53C7.59048 2.53 7.60049 1.62 7.30049 1.22C7.07049 0.91 6.63049 0.81 6.44049 0.79C6.28049 0.77 6.5405 0.41 6.8705 0.24C7.3705 -2.23517e-07 8.24048 0 9.28048 0C10.0905 0 10.3205 0.0600001 10.6305 0.13C11.5905 0.36 11.2605 1.25 11.2605 3.37C11.2605 4.06 11.1605 5 11.6305 5.33C11.8405 5.47 12.3605 5.35 13.6605 3.16C14.2605 2.12 14.7205 0.89 14.7205 0.89C14.7205 0.89 14.8205 0.68 14.9705 0.58C15.1305 0.5 15.3505 0.5 15.3505 0.5H18.2505C18.2505 0.5 19.1305 0.4 19.2705 0.79C19.4205 1.2 18.9405 2.17 17.7505 3.74C15.8105 6.34 15.5905 6.1 17.2005 7.6Z"/>
</symbol></svg>