<svg width="159" height="47" viewBox="0 0 159 47" fill="none" xmlns="http://www.w3.org/2000/svg">
<g filter="url(#filter0_d)">
<circle cx="37.5" cy="23.5" r="23.5" fill="#D13233"/>
<circle cx="37.5" cy="23.5" r="23.5" fill="url(#paint0_radial)"/>
</g>
<path d="M26.224 28V16.8H28.496V26.04H33.024V28H26.224ZM34.4009 28V19.712H36.6009V28H34.4009ZM34.5769 18.408C34.3262 18.1627 34.2009 17.8613 34.2009 17.504C34.2009 17.1467 34.3262 16.8453 34.5769 16.6C34.8275 16.3547 35.1369 16.232 35.5049 16.232C35.8729 16.232 36.1822 16.3547 36.4329 16.6C36.6835 16.8453 36.8089 17.1467 36.8089 17.504C36.8089 17.8613 36.6835 18.1627 36.4329 18.408C36.1822 18.6533 35.8729 18.776 35.5049 18.776C35.1369 18.776 34.8275 18.6533 34.5769 18.408ZM43.5108 16.4V18.152C43.2708 18.1253 43.0228 18.112 42.7668 18.112C42.3188 18.112 41.9961 18.2053 41.7988 18.392C41.6014 18.5787 41.5028 18.8693 41.5028 19.264V19.712H43.5108V21.624H41.5028V28H39.3028V21.624H38.0628V19.712H39.3028V19.24C39.3028 17.2933 40.3881 16.32 42.5588 16.32C42.8521 16.32 43.1694 16.3467 43.5108 16.4ZM46.4471 24.512C46.5431 25.088 46.8098 25.5547 47.2471 25.912C47.6898 26.264 48.2231 26.44 48.8471 26.44C49.7165 26.44 50.5005 26.096 51.1991 25.408L52.5191 26.688C51.5965 27.6907 50.3751 28.192 48.8551 28.192C48.1831 28.192 47.5565 28.08 46.9751 27.856C46.3938 27.632 45.9031 27.3253 45.5031 26.936C45.1031 26.5467 44.7885 26.088 44.5591 25.56C44.3351 25.0267 44.2231 24.4587 44.2231 23.856C44.2231 23.2587 44.3378 22.6933 44.5671 22.16C44.7965 21.6267 45.1085 21.168 45.5031 20.784C45.9031 20.3947 46.3831 20.088 46.9431 19.864C47.5031 19.6347 48.0978 19.52 48.7271 19.52C49.5538 19.52 50.3005 19.7093 50.9671 20.088C51.6338 20.4613 52.1511 20.968 52.5191 21.608C52.8871 22.2427 53.0711 22.944 53.0711 23.712C53.0711 23.9893 53.0391 24.256 52.9751 24.512H46.4471ZM48.7111 21.272C48.1938 21.272 47.7325 21.424 47.3271 21.728C46.9271 22.032 46.6525 22.4373 46.5031 22.944H50.8071C50.6845 22.4427 50.4365 22.04 50.0631 21.736C49.6898 21.4267 49.2391 21.272 48.7111 21.272ZM73.1981 26.248C73.6728 26.248 74.1021 26.128 74.4861 25.888C74.8755 25.648 75.1661 25.328 75.3581 24.928V22.784C75.1661 22.384 74.8755 22.064 74.4861 21.824C74.1021 21.584 73.6728 21.464 73.1981 21.464C72.5208 21.464 71.9528 21.6933 71.4941 22.152C71.0355 22.6107 70.8061 23.1787 70.8061 23.856C70.8061 24.5333 71.0355 25.1013 71.4941 25.56C71.9528 26.0187 72.5208 26.248 73.1981 26.248ZM72.7341 19.52C73.7848 19.52 74.6595 19.8613 75.3581 20.544V16.32H77.5341V28H75.3581V27.168C74.6595 27.8507 73.7848 28.192 72.7341 28.192C71.9555 28.192 71.2488 27.9973 70.6141 27.608C69.9795 27.2133 69.4835 26.6853 69.1261 26.024C68.7741 25.3627 68.5981 24.64 68.5981 23.856C68.5981 23.072 68.7741 22.3493 69.1261 21.688C69.4835 21.0267 69.9795 20.5013 70.6141 20.112C71.2488 19.7173 71.9555 19.52 72.7341 19.52ZM81.3378 24.512C81.4338 25.088 81.7004 25.5547 82.1378 25.912C82.5804 26.264 83.1138 26.44 83.7378 26.44C84.6071 26.44 85.3911 26.096 86.0898 25.408L87.4097 26.688C86.4871 27.6907 85.2658 28.192 83.7458 28.192C83.0738 28.192 82.4471 28.08 81.8658 27.856C81.2844 27.632 80.7938 27.3253 80.3938 26.936C79.9938 26.5467 79.6791 26.088 79.4498 25.56C79.2258 25.0267 79.1138 24.4587 79.1138 23.856C79.1138 23.2587 79.2284 22.6933 79.4578 22.16C79.6871 21.6267 79.9991 21.168 80.3938 20.784C80.7938 20.3947 81.2738 20.088 81.8338 19.864C82.3938 19.6347 82.9884 19.52 83.6178 19.52C84.4444 19.52 85.1911 19.7093 85.8578 20.088C86.5244 20.4613 87.0417 20.968 87.4097 21.608C87.7778 22.2427 87.9618 22.944 87.9618 23.712C87.9618 23.9893 87.9298 24.256 87.8658 24.512H81.3378ZM83.6018 21.272C83.0844 21.272 82.6231 21.424 82.2178 21.728C81.8178 22.032 81.5431 22.4373 81.3938 22.944H85.6978C85.5751 22.4427 85.3271 22.04 84.9538 21.736C84.5804 21.4267 84.1298 21.272 83.6018 21.272ZM94.4801 19.712H96.7681L93.8081 28H91.4401L88.4801 19.712H90.7681L92.6241 25.352L94.4801 19.712ZM99.5096 24.512C99.6056 25.088 99.8723 25.5547 100.31 25.912C100.752 26.264 101.286 26.44 101.91 26.44C102.779 26.44 103.563 26.096 104.262 25.408L105.582 26.688C104.659 27.6907 103.438 28.192 101.918 28.192C101.246 28.192 100.619 28.08 100.038 27.856C99.4563 27.632 98.9656 27.3253 98.5656 26.936C98.1656 26.5467 97.851 26.088 97.6216 25.56C97.3976 25.0267 97.2856 24.4587 97.2856 23.856C97.2856 23.2587 97.4003 22.6933 97.6296 22.16C97.859 21.6267 98.171 21.168 98.5656 20.784C98.9656 20.3947 99.4456 20.088 100.006 19.864C100.566 19.6347 101.16 19.52 101.79 19.52C102.616 19.52 103.363 19.7093 104.03 20.088C104.696 20.4613 105.214 20.968 105.582 21.608C105.95 22.2427 106.134 22.944 106.134 23.712C106.134 23.9893 106.102 24.256 106.038 24.512H99.5096ZM101.774 21.272C101.256 21.272 100.795 21.424 100.39 21.728C99.9896 22.032 99.715 22.4373 99.5656 22.944H103.87C103.747 22.4427 103.499 22.04 103.126 21.736C102.752 21.4267 102.302 21.272 101.774 21.272ZM112.056 26.248C112.734 26.248 113.302 26.0187 113.76 25.56C114.219 25.1013 114.448 24.5333 114.448 23.856C114.448 23.1787 114.219 22.6107 113.76 22.152C113.302 21.6933 112.734 21.464 112.056 21.464C111.582 21.464 111.15 21.584 110.76 21.824C110.376 22.064 110.088 22.384 109.896 22.784V24.928C110.088 25.328 110.376 25.648 110.76 25.888C111.15 26.128 111.582 26.248 112.056 26.248ZM112.52 19.52C113.299 19.52 114.006 19.7173 114.64 20.112C115.275 20.5013 115.768 21.0267 116.12 21.688C116.478 22.3493 116.656 23.072 116.656 23.856C116.656 24.64 116.478 25.3627 116.12 26.024C115.768 26.6853 115.275 27.2133 114.64 27.608C114.006 27.9973 113.299 28.192 112.52 28.192C111.47 28.192 110.595 27.8507 109.896 27.168V31.712H107.72V19.712H109.896V20.544C110.595 19.8613 111.47 19.52 112.52 19.52ZM119.012 26.936C118.132 26.0987 117.692 25.072 117.692 23.856C117.692 22.64 118.132 21.6133 119.012 20.776C119.892 19.9387 120.985 19.52 122.292 19.52C123.156 19.52 123.94 19.712 124.644 20.096C125.348 20.48 125.897 21.0027 126.292 21.664C126.692 22.3253 126.892 23.056 126.892 23.856C126.892 24.656 126.692 25.3867 126.292 26.048C125.897 26.7093 125.348 27.232 124.644 27.616C123.94 28 123.156 28.192 122.292 28.192C120.985 28.192 119.892 27.7733 119.012 26.936ZM119.9 23.856C119.9 24.5333 120.129 25.1013 120.588 25.56C121.047 26.0187 121.615 26.248 122.292 26.248C122.969 26.248 123.537 26.0187 123.996 25.56C124.46 25.1013 124.692 24.5333 124.692 23.856C124.692 23.184 124.46 22.6187 123.996 22.16C123.537 21.696 122.969 21.464 122.292 21.464C121.615 21.464 121.047 21.696 120.588 22.16C120.129 22.6187 119.9 23.184 119.9 23.856ZM128.47 19.712H130.67V20.624C130.937 20.2933 131.265 20.0293 131.654 19.832C132.044 19.6347 132.46 19.536 132.902 19.536C133.484 19.536 134.006 19.6613 134.47 19.912C134.94 20.1627 135.316 20.512 135.598 20.96C135.897 20.528 136.292 20.1813 136.782 19.92C137.273 19.6533 137.79 19.52 138.334 19.52C139.289 19.52 140.065 19.8347 140.662 20.464C141.265 21.088 141.566 21.8907 141.566 22.872V28H139.366V23.096C139.366 22.632 139.228 22.2453 138.95 21.936C138.678 21.6213 138.316 21.464 137.862 21.464C137.526 21.464 137.204 21.576 136.894 21.8C136.585 22.0187 136.321 22.304 136.102 22.656C136.113 22.8907 136.118 23.072 136.118 23.2V28H133.918V23.096C133.918 22.6213 133.78 22.232 133.502 21.928C133.225 21.6187 132.862 21.464 132.414 21.464C132.078 21.464 131.756 21.5733 131.446 21.792C131.142 22.0107 130.884 22.2907 130.67 22.632V28H128.47V19.712ZM145.213 24.512C145.309 25.088 145.575 25.5547 146.013 25.912C146.455 26.264 146.989 26.44 147.613 26.44C148.482 26.44 149.266 26.096 149.965 25.408L151.285 26.688C150.362 27.6907 149.141 28.192 147.621 28.192C146.949 28.192 146.322 28.08 145.741 27.856C145.159 27.632 144.669 27.3253 144.269 26.936C143.869 26.5467 143.554 26.088 143.325 25.56C143.101 25.0267 142.989 24.4587 142.989 23.856C142.989 23.2587 143.103 22.6933 143.333 22.16C143.562 21.6267 143.874 21.168 144.269 20.784C144.669 20.3947 145.149 20.088 145.709 19.864C146.269 19.6347 146.863 19.52 147.493 19.52C148.319 19.52 149.066 19.7093 149.733 20.088C150.399 20.4613 150.917 20.968 151.285 21.608C151.653 22.2427 151.837 22.944 151.837 23.712C151.837 23.9893 151.805 24.256 151.741 24.512H145.213ZM147.477 21.272C146.959 21.272 146.498 21.424 146.093 21.728C145.693 22.032 145.418 22.4373 145.269 22.944H149.573C149.45 22.4427 149.202 22.04 148.829 21.736C148.455 21.4267 148.005 21.272 147.477 21.272ZM155.623 22.608V28H153.423V19.712H155.623V20.624C155.906 20.288 156.253 20.0213 156.663 19.824C157.079 19.6213 157.509 19.52 157.951 19.52C158.927 19.52 159.722 19.832 160.335 20.456C160.954 21.08 161.263 21.8933 161.263 22.896V28H159.063V23.112C159.063 22.6427 158.911 22.2507 158.607 21.936C158.309 21.6213 157.911 21.464 157.415 21.464C157.079 21.464 156.746 21.576 156.415 21.8C156.085 22.024 155.821 22.2933 155.623 22.608ZM165.848 21.624V25.128C165.848 25.528 165.944 25.8213 166.136 26.008C166.333 26.1893 166.658 26.28 167.112 26.28C167.394 26.28 167.656 26.2667 167.896 26.24V28.08C167.549 28.1547 167.168 28.192 166.752 28.192C164.682 28.192 163.648 27.216 163.648 25.264V21.624H162.36V19.712H163.648V17.504L165.848 17.312V19.712H167.8V21.624H165.848Z" fill="white"/>
<defs>
<filter id="filter0_d" x="0" y="0" width="63" height="63" filterUnits="userSpaceOnUse" color-interpolation-filters="sRGB">
<feFlood flood-opacity="0" result="BackgroundImageFix"/>
<feColorMatrix in="SourceAlpha" type="matrix" values="0 0 0 0 0 0 0 0 0 0 0 0 0 0 0 0 0 0 127 0"/>
<feOffset dx="-6" dy="8"/>
<feGaussianBlur stdDeviation="4"/>
<feColorMatrix type="matrix" values="0 0 0 0 0 0 0 0 0 0 0 0 0 0 0 0 0 0 0.1 0"/>
<feBlend mode="normal" in2="BackgroundImageFix" result="effect1_dropShadow"/>
<feBlend mode="normal" in="SourceGraphic" in2="effect1_dropShadow" result="shape"/>
</filter>
<radialGradient id="paint0_radial" cx="0" cy="0" r="1" gradientUnits="userSpaceOnUse" gradientTransform="translate(41.8436 11.6763) rotate(110.376) scale(33.5347)">
<stop stop-color="#FEC8C1"/>
<stop offset="1" stop-color="#E56A59" stop-opacity="0"/>
</radialGradient>
</defs>
</svg>
