<svg width="36" height="36" viewBox="0 0 36 36" fill="none" xmlns="http://www.w3.org/2000/svg">
<circle cx="18" cy="18" r="17.5" stroke="white"/>
<path d="M23.6917 27C23.5068 26.9995 23.3225 26.9798 23.1418 26.9414C19.7031 26.2522 16.5352 24.6364 14.0026 22.2798C11.524 19.9181 9.80498 16.9111 9.0535 13.6226C8.96489 13.2128 8.98664 12.7877 9.11665 12.3884C9.24666 11.9891 9.48057 11.6289 9.79586 11.3424L11.9954 9.29135C12.1078 9.18842 12.2413 9.10959 12.3872 9.06002C12.5331 9.01045 12.6882 8.99125 12.8423 9.00367C13.0021 9.01982 13.1562 9.06968 13.294 9.14976C13.4318 9.22983 13.5497 9.33817 13.6396 9.46716L16.3891 13.4042C16.4922 13.5569 16.542 13.7377 16.5311 13.92C16.5202 14.1022 16.4492 14.2762 16.3286 14.4164L14.9484 16.0147C15.4981 17.1933 16.2766 18.2586 17.2414 19.1526C18.2001 20.0789 19.3332 20.8186 20.5793 21.3315L22.2895 20.0156C22.4331 19.9056 22.6079 19.8406 22.7906 19.8292C22.9733 19.8178 23.1553 19.8605 23.3123 19.9517L27.464 22.5515C27.6065 22.6339 27.7279 22.7465 27.8191 22.8808C27.9102 23.0151 27.9689 23.1677 27.9906 23.3271C28.0123 23.4865 27.9964 23.6485 27.9443 23.8011C27.8921 23.9538 27.805 24.093 27.6895 24.2084L25.5449 26.2648C25.3013 26.4996 25.0121 26.6855 24.6941 26.8117C24.376 26.9378 24.0354 27.0018 23.6917 27ZM12.7543 10.0585L10.5547 12.1096C10.3773 12.2697 10.246 12.4718 10.1737 12.696C10.1014 12.9202 10.0906 13.1587 10.1423 13.3882C10.8411 16.474 12.4473 19.2976 14.7669 21.518C17.1503 23.735 20.1315 25.2549 23.3673 25.9025C23.6122 25.9521 23.866 25.9421 24.106 25.8732C24.3459 25.8044 24.5644 25.679 24.742 25.5083L26.8866 23.4518L22.8779 20.9426L21.0412 22.3597C20.9709 22.4136 20.8881 22.4501 20.7999 22.4658C20.7117 22.4816 20.6209 22.4763 20.5353 22.4503C19.0103 21.9059 17.6283 21.0418 16.4881 19.9197C15.3088 18.8527 14.3933 17.5415 13.8101 16.0839C13.7854 15.9957 13.7846 15.9028 13.8077 15.8141C13.8308 15.7255 13.8771 15.6441 13.9421 15.5778L15.4268 13.857L12.7543 10.0585Z" fill="white"/>
</svg>
